<svg width="80" height="80" viewBox="0 0 80 80" fill="none" xmlns="http://www.w3.org/2000/svg">
<path d="M66.667 20H56.667V13.3333C56.667 9.63329 53.7003 6.66663 50.0003 6.66663H30.0003C26.3003 6.66663 23.3337 9.63329 23.3337 13.3333V20H13.3337C9.63366 20 6.66699 22.9666 6.66699 26.6666V63.3333C6.66699 67.0333 9.63366 70 13.3337 70H66.667C70.367 70 73.3337 67.0333 73.3337 63.3333V26.6666C73.3337 22.9666 70.367 20 66.667 20ZM30.0003 13.3333H50.0003V20H30.0003V13.3333ZM66.667 63.3333H13.3337V56.6666H66.667V63.3333ZM66.667 46.6666H13.3337V26.6666H23.3337V33.3333H30.0003V26.6666H50.0003V33.3333H56.667V26.6666H66.667V46.6666Z" fill="#FA4A19"/>
</svg>
