<svg width="30" height="30" viewBox="0 0 30 30" fill="none" xmlns="http://www.w3.org/2000/svg">
<path d="M27.6867 2.65222C26.9537 1.81139 26.0833 1.14438 25.1254 0.689305C24.1675 0.234229 23.1407 0 22.1038 0C21.0669 0 20.0402 0.234229 19.0822 0.689305C18.1243 1.14438 17.254 1.81139 16.5209 2.65222L14.9996 4.39642L13.4783 2.65222C11.9976 0.954595 9.98941 0.000879937 7.89541 0.000879955C5.80142 0.000879973 3.79319 0.954595 2.31251 2.65222C0.831836 4.34984 1.56015e-08 6.65231 0 9.05311C-1.56015e-08 11.4539 0.831836 13.7564 2.31251 15.454L3.83382 17.1982L14.9996 30L26.1654 17.1982L27.6867 15.454C28.4201 14.6136 29.0019 13.6157 29.3988 12.5174C29.7957 11.4191 30 10.2419 30 9.05311C30 7.86428 29.7957 6.68709 29.3988 5.5888C29.0019 4.49052 28.4201 3.49265 27.6867 2.65222Z" fill="#FF0000"/>
</svg>
