<svg width="80" height="80" viewBox="0 0 80 80" fill="none" xmlns="http://www.w3.org/2000/svg">
<path d="M59.9997 26.6667H56.6663V20C56.6663 10.8 49.1997 3.33337 39.9997 3.33337C30.7997 3.33337 23.333 10.8 23.333 20V26.6667H19.9997C16.333 26.6667 13.333 29.6667 13.333 33.3334V66.6667C13.333 70.3334 16.333 73.3334 19.9997 73.3334H59.9997C63.6663 73.3334 66.6663 70.3334 66.6663 66.6667V33.3334C66.6663 29.6667 63.6663 26.6667 59.9997 26.6667ZM39.9997 56.6667C36.333 56.6667 33.333 53.6667 33.333 50C33.333 46.3334 36.333 43.3334 39.9997 43.3334C43.6663 43.3334 46.6663 46.3334 46.6663 50C46.6663 53.6667 43.6663 56.6667 39.9997 56.6667ZM50.333 26.6667H29.6663V20C29.6663 14.3 34.2997 9.66671 39.9997 9.66671C45.6997 9.66671 50.333 14.3 50.333 20V26.6667Z" fill="white"/>
</svg>
