<svg width="80" height="80" viewBox="0 0 80 80" fill="none" xmlns="http://www.w3.org/2000/svg">
<path d="M66.6663 26.6667H56.6663V13.3334H9.99967C6.33301 13.3334 3.33301 16.3334 3.33301 20V56.6667H9.99967C9.99967 62.2 14.4663 66.6667 19.9997 66.6667C25.533 66.6667 29.9997 62.2 29.9997 56.6667H49.9997C49.9997 62.2 54.4663 66.6667 59.9997 66.6667C65.533 66.6667 69.9997 62.2 69.9997 56.6667H76.6663V40L66.6663 26.6667ZM19.9997 61.6667C17.233 61.6667 14.9997 59.4334 14.9997 56.6667C14.9997 53.9 17.233 51.6667 19.9997 51.6667C22.7663 51.6667 24.9997 53.9 24.9997 56.6667C24.9997 59.4334 22.7663 61.6667 19.9997 61.6667ZM64.9997 31.6667L71.533 40H56.6663V31.6667H64.9997ZM59.9997 61.6667C57.233 61.6667 54.9997 59.4334 54.9997 56.6667C54.9997 53.9 57.233 51.6667 59.9997 51.6667C62.7663 51.6667 64.9997 53.9 64.9997 56.6667C64.9997 59.4334 62.7663 61.6667 59.9997 61.6667Z" fill="#FA4A19"/>
</svg>
