<svg width="80" height="80" viewBox="0 0 80 80" fill="none" xmlns="http://www.w3.org/2000/svg">
<path d="M66.667 20H59.4003C59.767 18.9666 60.0003 17.8333 60.0003 16.6666C60.0003 11.1333 55.5337 6.66663 50.0003 6.66663C46.5003 6.66663 43.467 8.46663 41.667 11.1666L40.0003 13.4L38.3337 11.1333C36.5337 8.46663 33.5003 6.66663 30.0003 6.66663C24.467 6.66663 20.0003 11.1333 20.0003 16.6666C20.0003 17.8333 20.2337 18.9666 20.6003 20H13.3337C9.63366 20 6.70033 22.9666 6.70033 26.6666L6.66699 63.3333C6.66699 67.0333 9.63366 70 13.3337 70H66.667C70.367 70 73.3337 67.0333 73.3337 63.3333V26.6666C73.3337 22.9666 70.367 20 66.667 20ZM50.0003 13.3333C51.8337 13.3333 53.3337 14.8333 53.3337 16.6666C53.3337 18.5 51.8337 20 50.0003 20C48.167 20 46.667 18.5 46.667 16.6666C46.667 14.8333 48.167 13.3333 50.0003 13.3333ZM30.0003 13.3333C31.8337 13.3333 33.3337 14.8333 33.3337 16.6666C33.3337 18.5 31.8337 20 30.0003 20C28.167 20 26.667 18.5 26.667 16.6666C26.667 14.8333 28.167 13.3333 30.0003 13.3333ZM66.667 63.3333H13.3337V56.6666H66.667V63.3333ZM66.667 46.6666H13.3337V26.6666H30.267L23.3337 36.1L28.7337 40L36.667 29.2L40.0003 24.6666L43.3337 29.2L51.267 40L56.667 36.1L49.7337 26.6666H66.667V46.6666Z" fill="#FA4A19"/>
</svg>
