<svg width="80" height="80" viewBox="0 0 80 80" fill="none" xmlns="http://www.w3.org/2000/svg">
<path d="M6.66699 66.6666H13.3337C15.167 66.6666 16.667 65.1666 16.667 63.3333V33.3333C16.667 31.5 15.167 30 13.3337 30H6.66699V66.6666ZM72.767 42.9333C73.1337 42.1 73.3337 41.2 73.3337 40.2666V36.6666C73.3337 33 70.3337 30 66.667 30H48.3337L51.4003 14.5C51.567 13.7666 51.467 12.9666 51.1337 12.3C50.367 10.8 49.4003 9.43329 48.2003 8.23329L46.667 6.66663L25.3003 28.0333C24.0337 29.3 23.3337 31 23.3337 32.7666V58.9C23.3337 63.1666 26.8337 66.6666 31.1337 66.6666H58.167C60.5003 66.6666 62.7003 65.4333 63.9003 63.4333L72.767 42.9333Z" fill="white"/>
</svg>
